<svg height="512pt" viewBox="0 0 512 512" width="512pt" xmlns="http://www.w3.org/2000/svg" xmlns:xlink="http://www.w3.org/1999/xlink"><linearGradient id="a" gradientTransform="matrix(1 0 0 -1 0 -18006)" gradientUnits="userSpaceOnUse" x1="0" x2="512" y1="-18262" y2="-18262"><stop offset="0" stop-color="#00f38d"/><stop offset="1" stop-color="#009eff"/></linearGradient><path d="m512 256c0 141.386719-114.613281 256-256 256s-256-114.613281-256-256 114.613281-256 256-256 256 114.613281 256 256zm0 0" fill="url(#a)"/><g fill="#fff"><path d="m207.855469 100.414062h-107.441407v107.441407h107.441407zm-30 77.441407h-47.441407v-47.441407h47.441407zm0 0"/><path d="m142.222656 142.222656h23.828125v23.828125h-23.828125zm0 0"/><path d="m304.144531 100.414062v107.441407h107.441407v-107.441407zm77.441407 77.441407h-47.441407v-47.441407h47.441407zm0 0"/><path d="m345.949219 142.222656h23.828125v23.828125h-23.828125zm0 0"/><path d="m100.414062 411.585938h107.441407v-107.441407h-107.441407zm30-77.441407h47.441407v47.441407h-47.441407zm0 0"/><path d="m142.222656 345.949219h23.828125v23.828125h-23.828125zm0 0"/><path d="m127.328125 220.855469h23.828125v23.828125h-23.828125zm0 0"/><path d="m151.15625 268.511719h23.234375v23.828125h23.828125v-23.828125h-23.234375v-23.828125h-23.828125zm0 0"/><path d="m270.296875 149.367188h23.828125v23.828124h-23.828125zm0 0"/><path d="m222.640625 127.328125h23.828125v45.867187h-23.828125zm0 0"/><path d="m246.46875 103.5h23.828125v23.828125h-23.828125zm0 0"/><path d="m246.46875 173.195312v23.828126h-23.828125v23.832031h47.65625v-47.660157zm0 0"/><path d="m246.46875 292.339844v23.230468h23.828125v23.234376h47.65625v-23.828126h-47.65625v-23.234374h-23.828125v-47.058594h-23.828125v47.65625zm0 0"/><path d="m270.296875 220.855469h23.828125v47.65625h-23.828125zm0 0"/><path d="m384.671875 220.855469h-43.484375v23.828125h-23.234375v23.828125h23.828125v23.230469h66.71875v-47.65625h-23.828125zm0 47.058593h-42.890625v-23.230468h42.890625zm0 0"/><path d="m384.671875 314.976562h23.828125v47.65625h-23.828125zm0 0"/><path d="m294.125 268.511719h23.828125v23.828125h-23.828125zm0 0"/><path d="m317.953125 338.804688h23.828125v23.828124h-23.828125zm0 0"/><path d="m341.78125 314.976562h23.828125v23.828126h-23.828125zm0 0"/><path d="m365.609375 408.5v-22.039062h19.0625v-23.828126h-42.890625v45.867188zm0 0"/><path d="m222.640625 315.570312h23.828125v45.273438h-23.828125zm0 0"/><path d="m270.296875 408.5v-23.828125h23.230469v23.828125h23.828125v-23.828125h-23.230469v-23.828125h-47.65625v47.65625zm0 0"/><path d="m174.984375 220.855469h47.65625v23.828125h-47.65625zm0 0"/><path d="m103.5 244.683594h23.828125v47.65625h-23.828125zm0 0"/></g></svg>